<?xml version="1.0" standalone="no"?>
<!DOCTYPE svg PUBLIC "-//W3C//DTD SVG 20010904//EN"
 "http://www.w3.org/TR/2001/REC-SVG-20010904/DTD/svg10.dtd">
<svg version="1.0" xmlns="http://www.w3.org/2000/svg"
 width="360.000000pt" height="360.000000pt" viewBox="0 0 360.000000 360.000000"
 preserveAspectRatio="xMidYMid meet">
<metadata>
Created by potrace 1.11, written by Peter Selinger 2001-2013
</metadata>
<g transform="translate(0.000000,360.000000) scale(0.100000,-0.100000)"
fill="#000000" stroke="none">
<path d="M1555 3265 c-321 -57 -598 -205 -827 -443 -208 -217 -338 -477 -390
-777 -26 -154 -21 -409 11 -550 65 -292 197 -531 406 -740 209 -210 449 -340
746 -407 89 -20 131 -23 299 -23 168 0 210 3 299 23 297 67 537 197 746 407
209 209 341 448 406 740 32 141 37 396 11 550 -55 317 -186 571 -416 801 -214
214 -451 344 -746 409 -104 23 -435 29 -545 10z m-3 -517 c9 -7 25 -45 37 -85
12 -40 24 -79 27 -87 8 -20 -39 -49 -65 -41 -14 4 -28 31 -49 95 -31 91 -30
110 8 123 23 8 25 8 42 -5z m443 -42 c19 -8 35 -18 35 -21 0 -12 -70 -144 -79
-150 -6 -3 -24 1 -41 10 -25 13 -30 20 -24 38 9 31 63 137 69 137 3 0 21 -7
40 -14z m-745 -292 c36 -9 69 -21 74 -25 10 -9 -18 -79 -31 -79 -16 1 -151 38
-163 45 -7 4 -9 17 -5 34 9 35 25 52 44 47 9 -3 45 -12 81 -22z m1022 -1 c29
-26 22 -47 -31 -91 -55 -47 -66 -50 -93 -25 -29 26 -22 48 30 92 52 45 67 49
94 24z m-564 -90 c33 -18 618 -652 653 -708 23 -37 24 -78 3 -111 -27 -41 -65
-54 -157 -54 l-84 0 53 -132 c62 -153 68 -205 32 -258 -38 -55 -70 -73 -130
-73 -56 0 -101 17 -131 51 -10 11 -45 80 -77 153 -33 74 -63 135 -67 136 -5 2
-33 -18 -63 -43 -30 -25 -68 -54 -85 -65 -39 -25 -95 -24 -128 1 -51 40 -51
49 -7 551 22 255 45 479 51 496 12 38 52 73 83 73 12 0 36 -8 54 -17z m-470
-335 c7 -7 12 -25 12 -40 0 -33 -17 -42 -97 -53 -45 -6 -53 -4 -62 14 -15 28
-14 61 3 67 12 5 90 19 122 23 5 0 15 -4 22 -11z m-427 -1173 c203 -191 477
-326 759 -371 122 -20 338 -20 460 0 282 45 555 179 758 371 47 44 107 106
134 138 66 79 61 60 -8 -29 -183 -240 -472 -425 -776 -499 -540 -131 -1124 70
-1452 499 -69 89 -74 108 -8 29 27 -32 87 -94 133 -138z"/>
<path d="M1672 2211 c-16 -10 -13 12 -57 -461 -45 -478 -43 -454 -25 -457 8
-2 60 35 115 82 139 120 132 122 220 -87 75 -179 90 -204 130 -214 28 -7 72
16 82 44 9 21 -44 176 -102 299 -25 53 -45 101 -45 108 0 30 25 34 143 25 125
-10 150 -7 145 20 -3 17 -542 613 -576 637 -10 7 -23 9 -30 4z"/>
<path d="M510 856 c0 -2 8 -10 18 -17 15 -13 16 -12 3 4 -13 16 -21 21 -21 13z"/>
<path d="M3069 843 c-13 -16 -12 -17 4 -4 16 13 21 21 13 21 -2 0 -10 -8 -17
-17z"/>
<path d="M560 795 c13 -14 26 -25 28 -25 3 0 -5 11 -18 25 -13 14 -26 25 -28
25 -3 0 5 -11 18 -25z"/>
<path d="M2990 749 c-237 -266 -590 -453 -965 -510 -103 -15 -347 -15 -450 0
-355 54 -640 197 -920 460 l-70 66 75 -78 c321 -336 806 -519 1261 -478 156
15 246 33 390 81 223 74 414 188 583 350 67 64 172 180 163 180 -2 0 -32 -32
-67 -71z"/>
</g>
</svg>
